<?xml version="1.0" standalone="no"?>
<!DOCTYPE svg PUBLIC "-//W3C//DTD SVG 20010904//EN"
 "http://www.w3.org/TR/2001/REC-SVG-20010904/DTD/svg10.dtd">
<svg version="1.0" xmlns="http://www.w3.org/2000/svg"
 width="1280.000000pt" height="1016.000000pt" viewBox="0 0 1280.000000 1016.000000"
 preserveAspectRatio="xMidYMid meet">
<metadata>
Created by potrace 1.15, written by Peter Selinger 2001-2017
</metadata>
<g transform="translate(0.000000,1016.000000) scale(0.100000,-0.100000)"
fill="#000000" stroke="none">
<path d="M7590 10078 c51 -50 254 -210 505 -399 231 -174 539 -407 685 -518
l265 -202 7 -72 c22 -209 110 -419 248 -590 320 -399 930 -498 1379 -225 259
157 427 402 491 717 23 114 25 205 6 311 -65 362 -311 672 -638 805 -175 71
-427 108 -957 140 -141 9 -456 29 -701 45 -571 38 -924 58 -1175 65 l-200 6
85 -83z"/>
<path d="M8242 8699 c-289 -38 -462 -202 -462 -437 0 -256 222 -697 568 -1127
129 -160 454 -489 561 -569 377 -281 858 -494 1436 -637 231 -57 583 -126 705
-138 249 -25 551 -41 765 -40 266 0 309 5 313 35 5 37 -172 87 -488 138 -304
49 -338 61 -775 277 -579 284 -942 526 -1241 824 -145 145 -233 250 -334 403
-84 126 -140 235 -260 502 -206 461 -306 606 -483 703 -111 62 -199 81 -305
66z"/>
<path d="M4902 7447 c-208 -117 -304 -235 -366 -449 -47 -164 -54 -325 -24
-583 28 -253 395 -1852 568 -2475 116 -422 176 -652 236 -910 98 -428 153
-638 234 -900 43 -140 121 -399 174 -575 238 -798 247 -824 339 -962 23 -35
45 -63 48 -63 14 0 22 261 16 505 -5 216 -44 1035 -77 1635 -68 1220 -126
2028 -210 2910 -16 168 -34 366 -40 440 -42 510 -103 787 -230 1045 -68 139
-149 236 -262 315 -83 58 -202 110 -266 115 -42 4 -57 -1 -140 -48z"/>
<path d="M6123 7400 c-68 -8 -96 -27 -168 -111 -111 -132 -160 -260 -160 -415
0 -96 1 -103 39 -180 53 -105 160 -213 321 -320 218 -145 429 -241 943 -429
177 -65 322 -122 322 -127 0 -14 -526 -1091 -823 -1683 -148 -297 -276 -558
-284 -580 -8 -22 -23 -80 -34 -130 -10 -49 -21 -100 -24 -112 -5 -20 -3 -21
33 -11 115 32 183 90 535 458 160 168 402 418 537 555 472 481 646 676 775
870 213 318 314 695 251 935 -40 150 -137 303 -290 456 -136 136 -247 219
-542 406 -336 214 -516 298 -771 364 -220 56 -465 76 -660 54z"/>
<path d="M2570 5624 c-146 -18 -375 -79 -570 -151 -238 -88 -533 -257 -767
-439 -350 -273 -692 -717 -937 -1219 -118 -240 -222 -615 -273 -975 -26 -193
-24 -598 6 -789 100 -651 400 -1199 842 -1541 397 -307 865 -445 1386 -409
449 31 811 164 1254 460 432 289 833 770 1093 1309 104 216 202 529 255 815
69 366 69 801 2 1126 -74 352 -185 632 -351 883 -225 342 -479 572 -805 731
-188 91 -335 139 -555 181 -82 16 -494 28 -580 18z"/>
<path d="M10439 5525 c-417 -51 -947 -284 -1319 -582 -194 -156 -457 -437
-602 -643 -132 -189 -321 -528 -388 -695 -163 -408 -240 -808 -240 -1240 0
-403 59 -706 211 -1076 226 -552 653 -973 1189 -1172 454 -168 1060 -151 1543
44 162 65 343 163 547 295 396 256 765 678 1049 1200 259 478 408 1186 362
1727 -20 237 -79 513 -157 737 -162 470 -514 907 -921 1147 -367 216 -837 311
-1274 258z"/>
</g>
</svg>
