<svg xmlns="http://www.w3.org/2000/svg" viewBox="0 0 64 64" width="64" height="64">
  <rect width="64" height="64" rx="12" fill="#0a0a0f"/>
  <g transform="skewX(15)">
    <path d="M-3.01 11.60L8.24 11.60L10.83 27.78Q11.07 29.31 11.25 31.13Q11.44 32.95 11.58 35.09L11.58 35.09Q11.68 36.73 11.73 37.90Q11.78 39.07 11.81 40.25Q11.85 41.42 11.92 43.12L11.92 43.12Q11.95 44.14 11.95 45.09L11.95 45.09L11.95 46.96L12.63 46.96Q12.63 45.09 12.68 43.12Q12.73 41.15 12.80 39.11L12.80 39.11Q12.87 36.96 13.00 35.04Q13.14 33.12 13.34 31.25L13.34 31.25Q13.45 30.33 13.55 29.47Q13.65 28.60 13.79 27.78L13.79 27.78L16.34 11.60L27.59 11.60L27.59 52.06L19.60 52.06L19.60 47.27Q19.60 44.61 19.74 41.40Q19.87 38.19 20.11 35.16L20.11 35.16Q20.35 31.93 20.62 28.77Q20.89 25.61 21.23 22.51L21.23 22.51Q21.37 20.98 21.54 19.52L21.54 19.52Q21.67 18.06 21.81 16.70L21.81 16.70L21.13 16.70Q20.93 18.81 20.69 20.68Q20.45 22.55 20.20 24.45Q19.94 26.36 19.63 28.67L19.63 28.67Q19.36 30.61 19.01 32.82Q18.65 35.03 18.27 37.20Q17.90 39.38 17.56 41.21L17.56 41.21Q17.29 42.71 17.02 44.14L17.02 44.14Q16.71 45.57 16.44 46.93L16.44 46.93L15.35 52.06L9.23 52.06L8.14 46.93Q7.73 44.89 7.38 43.08Q7.02 41.28 6.68 39.36Q6.34 37.44 5.97 35.03L5.97 35.03Q5.35 31.35 4.88 28.14Q4.40 24.93 4.13 22.48L4.13 22.48Q3.93 20.98 3.76 19.52Q3.59 18.06 3.45 16.70L3.45 16.70L2.77 16.70Q3.04 19.32 3.35 22.34Q3.65 25.37 3.96 28.77L3.96 28.77Q4.16 31.22 4.32 33.16Q4.47 35.09 4.61 37.03Q4.74 38.97 4.84 41.42L4.84 41.42Q4.98 44.44 4.98 47.27L4.98 47.27L4.98 52.06L-3.01 52.06L-3.01 11.60ZM30.65 41.76L30.65 41.76L30.65 37.85L38.13 37.85L38.13 41.55Q38.13 44.58 40.03 44.58L40.03 44.58Q41.87 44.58 41.87 41.52L41.87 41.52L41.87 19.08L32.69 19.08L32.69 11.60L49.86 11.60L49.86 41.59Q49.86 43.59 49.47 45.33Q49.08 47.06 48.26 48.42L48.26 48.42Q47.48 49.68 46.29 50.58Q45.10 51.48 43.57 51.92L43.57 51.92Q41.97 52.40 40.10 52.40L40.10 52.40Q35.48 52.40 33.06 49.71Q30.65 47.03 30.65 41.76Z" fill="#FFE645"/>
  </g>
</svg>